<?xml version="1.0" encoding="UTF-8" standalone="no"?>
<svg width="32" height="32" viewBox="0 0 200 200" fill="none" xmlns="http://www.w3.org/2000/svg">
  <circle cx="100" cy="100" r="85" fill="#2563eb" />
  <circle cx="100" cy="100" r="70" fill="white" />
  <path d="M100 40C78.9543 40 62 56.9543 62 78C62 94.5691 72.9863 108.592 88 113.301V130C88 132.761 90.2386 135 93 135H107C109.761 135 112 132.761 112 130V113.301C127.014 108.592 138 94.5691 138 78C138 56.9543 121.046 40 100 40Z" fill="#2563eb"/>
  <path d="M120 155C120 149.477 115.523 145 110 145H90C84.4772 145 80 149.477 80 155V160H120V155Z" fill="#2563eb"/>
</svg>
